<?xml version="1.0" encoding="UTF-8"?>
<!DOCTYPE svg PUBLIC "-//W3C//DTD SVG 1.1//EN" "http://www.w3.org/Graphics/SVG/1.1/DTD/svg11.dtd">
<svg xmlns="http://www.w3.org/2000/svg" version="1.1" width="192px" height="192px" style="shape-rendering:geometricPrecision; text-rendering:geometricPrecision; image-rendering:optimizeQuality; fill-rule:evenodd; clip-rule:evenodd" xmlns:xlink="http://www.w3.org/1999/xlink">
<g><path style="opacity:0.598" fill="#efe3b8" d="M 143.5,-0.5 C 145.833,-0.5 148.167,-0.5 150.5,-0.5C 150.5,0.5 150.5,1.5 150.5,2.5C 148.236,1.78138 145.903,1.44805 143.5,1.5C 143.5,0.833333 143.5,0.166667 143.5,-0.5 Z"/></g>
<g><path style="opacity:0.545" fill="#edd77a" d="M 143.5,1.5 C 144.833,2.16667 146.167,2.83333 147.5,3.5C 144.772,3.17057 142.438,3.83724 140.5,5.5C 139.508,5.32842 138.842,5.66175 138.5,6.5C 137.833,6.5 137.167,6.5 136.5,6.5C 136.5,5.83333 136.5,5.16667 136.5,4.5C 138.722,3.31238 141.055,2.31238 143.5,1.5 Z"/></g>
<g><path style="opacity:0.549" fill="#ead691" d="M 136.5,4.5 C 136.5,5.16667 136.5,5.83333 136.5,6.5C 135.391,6.55688 134.391,6.89022 133.5,7.5C 132.833,7.5 132.167,7.5 131.5,7.5C 132.401,5.2729 134.067,4.2729 136.5,4.5 Z"/></g>
<g><path style="opacity:1" fill="#edcf5a" d="M 147.5,3.5 C 147.5,6.16667 147.5,8.83333 147.5,11.5C 147.167,11.5 146.833,11.5 146.5,11.5C 146.808,9.07603 146.474,6.74269 145.5,4.5C 143.929,5.30937 142.262,5.64271 140.5,5.5C 142.438,3.83724 144.772,3.17057 147.5,3.5 Z"/></g>
<g><path style="opacity:1" fill="#ebd473" d="M 147.5,3.5 C 149.972,6.11908 149.972,8.78574 147.5,11.5C 147.5,8.83333 147.5,6.16667 147.5,3.5 Z"/></g>
<g><path style="opacity:0.562" fill="#eed57c" d="M 127.5,8.5 C 128.568,7.56552 129.901,7.23219 131.5,7.5C 132.167,7.5 132.833,7.5 133.5,7.5C 132.5,8.16667 131.5,8.83333 130.5,9.5C 129.609,8.89022 128.609,8.55688 127.5,8.5 Z"/></g>
<g><path style="opacity:1" fill="#f4d045" d="M 146.5,11.5 C 144.856,11.8102 143.856,12.8102 143.5,14.5C 140.751,14.7261 138.084,14.3928 135.5,13.5C 134.438,15.0217 133.771,16.6883 133.5,18.5C 130.364,18.6031 127.698,19.6031 125.5,21.5C 124.833,21.5 124.167,21.5 123.5,21.5C 122.305,21.6775 121.138,22.0109 120,22.5C 118.433,21.1439 116.6,20.4772 114.5,20.5C 114.5,22.1667 114.5,23.8333 114.5,25.5C 112.876,25.3601 111.71,26.0267 111,27.5C 110.51,26.2068 110.343,24.8734 110.5,23.5C 111.11,22.609 111.443,21.609 111.5,20.5C 112.5,17.5 114.5,15.5 117.5,14.5C 121.629,14.126 125.629,13.126 129.5,11.5C 129.863,10.8165 130.196,10.1499 130.5,9.5C 133.716,9.6545 136.383,8.6545 138.5,6.5C 138.842,5.66175 139.508,5.32842 140.5,5.5C 142.262,5.64271 143.929,5.30937 145.5,4.5C 146.474,6.74269 146.808,9.07603 146.5,11.5 Z"/></g>
<g><path style="opacity:1" fill="#edce5d" d="M 136.5,6.5 C 137.167,6.5 137.833,6.5 138.5,6.5C 136.383,8.6545 133.716,9.6545 130.5,9.5C 131.5,8.83333 132.5,8.16667 133.5,7.5C 134.391,6.89022 135.391,6.55688 136.5,6.5 Z"/></g>
<g><path style="opacity:0.485" fill="#eed992" d="M 143.5,1.5 C 145.903,1.44805 148.236,1.78138 150.5,2.5C 150.665,5.8499 150.498,9.18323 150,12.5C 148.961,13.7101 147.794,14.7101 146.5,15.5C 146.833,14.1667 147.167,12.8333 147.5,11.5C 149.972,8.78574 149.972,6.11908 147.5,3.5C 146.167,2.83333 144.833,2.16667 143.5,1.5 Z"/></g>
<g><path style="opacity:0.833" fill="#f4db7e" d="M 127.5,8.5 C 128.598,9.39695 128.598,10.2303 127.5,11C 124.766,11.2104 122.266,12.0437 120,13.5C 119.329,12.7476 118.496,12.4142 117.5,12.5C 120.37,10.2057 123.703,8.87234 127.5,8.5 Z"/></g>
<g><path style="opacity:1" fill="#f1cd59" d="M 127.5,8.5 C 128.609,8.55688 129.609,8.89022 130.5,9.5C 130.196,10.1499 129.863,10.8165 129.5,11.5C 125.629,13.126 121.629,14.126 117.5,14.5C 117.5,13.8333 117.5,13.1667 117.5,12.5C 118.496,12.4142 119.329,12.7476 120,13.5C 122.266,12.0437 124.766,11.2104 127.5,11C 128.598,10.2303 128.598,9.39695 127.5,8.5 Z"/></g>
<g><path style="opacity:0.833" fill="#edd378" d="M 146.5,11.5 C 146.833,11.5 147.167,11.5 147.5,11.5C 147.167,12.8333 146.833,14.1667 146.5,15.5C 145.71,16.4013 144.71,17.0679 143.5,17.5C 141.5,16.1667 139.5,16.1667 137.5,17.5C 139.249,16.0149 141.249,15.0149 143.5,14.5C 143.856,12.8102 144.856,11.8102 146.5,11.5 Z"/></g>
<g><path style="opacity:0.533" fill="#eed982" d="M 117.5,12.5 C 117.5,13.1667 117.5,13.8333 117.5,14.5C 114.5,15.5 112.5,17.5 111.5,20.5C 109.273,21.4006 108.273,23.0672 108.5,25.5C 107.833,25.1667 107.167,24.8333 106.5,24.5C 106.351,23.448 106.517,22.448 107,21.5C 109.382,18.5728 111.882,15.7395 114.5,13C 115.448,12.5172 116.448,12.3505 117.5,12.5 Z"/></g>
<g><path style="opacity:1" fill="#f0cf52" d="M 143.5,14.5 C 141.249,15.0149 139.249,16.0149 137.5,17.5C 136.833,17.8333 136.167,18.1667 135.5,18.5C 134.833,18.5 134.167,18.5 133.5,18.5C 133.771,16.6883 134.438,15.0217 135.5,13.5C 138.084,14.3928 140.751,14.7261 143.5,14.5 Z"/></g>
<g><path style="opacity:0.507" fill="#ead885" d="M 143.5,17.5 C 140.54,19.3956 137.207,20.3956 133.5,20.5C 134.167,19.8333 134.833,19.1667 135.5,18.5C 136.167,18.1667 136.833,17.8333 137.5,17.5C 139.5,16.1667 141.5,16.1667 143.5,17.5 Z"/></g>
<g><path style="opacity:0.916" fill="#ead065" d="M 133.5,18.5 C 134.167,18.5 134.833,18.5 135.5,18.5C 134.833,19.1667 134.167,19.8333 133.5,20.5C 133.5,21.1667 133.167,21.5 132.5,21.5C 132.631,20.7611 132.464,20.0944 132,19.5C 131.329,20.2524 130.496,20.5858 129.5,20.5C 128.167,20.8333 126.833,21.1667 125.5,21.5C 127.698,19.6031 130.364,18.6031 133.5,18.5 Z"/></g>
<g><path style="opacity:0.651" fill="#f7e195" d="M 132.5,21.5 C 131.18,22.9418 129.514,23.6085 127.5,23.5C 128.167,22.5 128.833,21.5 129.5,20.5C 130.496,20.5858 131.329,20.2524 132,19.5C 132.464,20.0944 132.631,20.7611 132.5,21.5 Z"/></g>
<g><path style="opacity:0.811" fill="#f0dc85" d="M 129.5,20.5 C 128.833,21.5 128.167,22.5 127.5,23.5C 125.355,24.9885 123.022,25.9885 120.5,26.5C 120.5,25.8333 120.5,25.1667 120.5,24.5C 121.694,23.7281 122.694,22.7281 123.5,21.5C 124.167,21.5 124.833,21.5 125.5,21.5C 126.833,21.1667 128.167,20.8333 129.5,20.5 Z"/></g>
<g><path style="opacity:1" fill="#f5cf48" d="M 123.5,21.5 C 122.694,22.7281 121.694,23.7281 120.5,24.5C 118.589,24.5743 117.422,25.5743 117,27.5C 116.179,34.3464 116.346,41.013 117.5,47.5C 117.5,47.8333 117.5,48.1667 117.5,48.5C 117.5,48.8333 117.5,49.1667 117.5,49.5C 116.883,49.3893 116.383,49.056 116,48.5C 115.5,42.1754 115.334,35.8421 115.5,29.5C 113.61,29.2965 112.11,29.9632 111,31.5C 110.501,36.8229 110.334,42.1563 110.5,47.5C 109.167,39.5 109.167,31.5 110.5,23.5C 110.343,24.8734 110.51,26.2068 111,27.5C 111.71,26.0267 112.876,25.3601 114.5,25.5C 114.5,23.8333 114.5,22.1667 114.5,20.5C 116.6,20.4772 118.433,21.1439 120,22.5C 121.138,22.0109 122.305,21.6775 123.5,21.5 Z"/></g>
<g><path style="opacity:0.468" fill="#e5d385" d="M 139.5,30.5 C 138.833,31.1667 138.167,31.8333 137.5,32.5C 136.833,32.1667 136.167,31.8333 135.5,31.5C 136.403,29.3796 137.737,29.0462 139.5,30.5 Z"/></g>
<g><path style="opacity:0.965" fill="#edd266" d="M 120.5,24.5 C 120.5,25.1667 120.5,25.8333 120.5,26.5C 119.527,28.9479 119.194,31.6146 119.5,34.5C 117.22,37.1456 116.887,40.1456 118.5,43.5C 118.167,44.8333 117.833,46.1667 117.5,47.5C 116.346,41.013 116.179,34.3464 117,27.5C 117.422,25.5743 118.589,24.5743 120.5,24.5 Z"/></g>
<g><path style="opacity:0.917" fill="#ead575" d="M 106.5,24.5 C 107.167,24.8333 107.833,25.1667 108.5,25.5C 108.5,32.8333 108.5,40.1667 108.5,47.5C 107.833,48.1667 107.167,48.8333 106.5,49.5C 105.167,41.1667 105.167,32.8333 106.5,24.5 Z"/></g>
<g><path style="opacity:1" fill="#e9d265" d="M 139.5,30.5 C 139.833,30.5 140.167,30.5 140.5,30.5C 142.564,32.5895 144.897,34.2561 147.5,35.5C 144.017,34.7987 140.684,33.7987 137.5,32.5C 138.167,31.8333 138.833,31.1667 139.5,30.5 Z"/></g>
<g><path style="opacity:1" fill="#ebce56" d="M 111.5,20.5 C 111.443,21.609 111.11,22.609 110.5,23.5C 109.167,31.5 109.167,39.5 110.5,47.5C 111.382,51.3815 112.715,55.0481 114.5,58.5C 113.504,58.5858 112.671,58.2524 112,57.5C 110.533,54.2416 109.367,50.9083 108.5,47.5C 108.5,40.1667 108.5,32.8333 108.5,25.5C 108.273,23.0672 109.273,21.4006 111.5,20.5 Z"/></g>
<g><path style="opacity:0.501" fill="#f5e5a3" d="M 119.5,34.5 C 119.5,37.5 119.5,40.5 119.5,43.5C 119.167,43.5 118.833,43.5 118.5,43.5C 116.887,40.1456 117.22,37.1456 119.5,34.5 Z"/></g>
<g><path style="opacity:1" fill="#e8d36e" d="M 135.5,31.5 C 136.167,31.8333 136.833,32.1667 137.5,32.5C 137.5,35.1667 137.5,37.8333 137.5,40.5C 136.5,40.5 135.5,40.5 134.5,40.5C 134.19,37.2869 134.523,34.2869 135.5,31.5 Z"/></g>
<g><path style="opacity:0.81" fill="#edd270" d="M 149.5,36.5 C 154.081,37.5816 158.414,39.2482 162.5,41.5C 157.533,41.1723 153.2,39.5056 149.5,36.5 Z"/></g>
<g><path style="opacity:0.495" fill="#f2df8b" d="M 140.5,30.5 C 149.93,33.8604 159.263,37.5271 168.5,41.5C 167.081,42.4511 165.415,42.7845 163.5,42.5C 163.5,41.8333 163.167,41.5 162.5,41.5C 158.414,39.2482 154.081,37.5816 149.5,36.5C 148.508,36.6716 147.842,36.3382 147.5,35.5C 144.897,34.2561 142.564,32.5895 140.5,30.5 Z"/></g>
<g><path style="opacity:0.576" fill="#ebdb9a" d="M 134.5,40.5 C 135.5,40.5 136.5,40.5 137.5,40.5C 137.5,40.8333 137.5,41.1667 137.5,41.5C 137.973,42.9063 138.973,43.573 140.5,43.5C 140.5,44.1667 140.5,44.8333 140.5,45.5C 137.288,45.2876 135.288,43.6209 134.5,40.5 Z"/></g>
<g><path style="opacity:1" fill="#efce60" d="M 137.5,41.5 C 138.873,41.3433 140.207,41.51 141.5,42C 144.104,42.7911 146.104,44.2911 147.5,46.5C 145.278,45.3124 142.945,44.3124 140.5,43.5C 138.973,43.573 137.973,42.9063 137.5,41.5 Z"/></g>
<g><path style="opacity:0.916" fill="#ebd571" d="M 168.5,41.5 C 170.404,41.7376 171.738,42.7376 172.5,44.5C 172.5,45.1667 172.5,45.8333 172.5,46.5C 169.617,44.7669 166.617,43.4335 163.5,42.5C 165.415,42.7845 167.081,42.4511 168.5,41.5 Z"/></g>
<g><path style="opacity:1" fill="#f5cf47" d="M 137.5,32.5 C 140.684,33.7987 144.017,34.7987 147.5,35.5C 147.842,36.3382 148.508,36.6716 149.5,36.5C 153.2,39.5056 157.533,41.1723 162.5,41.5C 163.167,41.5 163.5,41.8333 163.5,42.5C 166.617,43.4335 169.617,44.7669 172.5,46.5C 174.385,48.0532 175.385,50.0532 175.5,52.5C 175.5,54.5 175.5,56.5 175.5,58.5C 174.532,56.3926 174.198,54.0593 174.5,51.5C 172.5,52.1667 170.5,52.8333 168.5,53.5C 168.5,54.8333 168.5,56.1667 168.5,57.5C 168.167,57.5 167.833,57.5 167.5,57.5C 166.759,54.66 165.092,52.66 162.5,51.5C 157.959,48.8752 152.959,47.2085 147.5,46.5C 146.104,44.2911 144.104,42.7911 141.5,42C 140.207,41.51 138.873,41.3433 137.5,41.5C 137.5,41.1667 137.5,40.8333 137.5,40.5C 137.5,37.8333 137.5,35.1667 137.5,32.5 Z"/></g>
<g><path style="opacity:0.667" fill="#c5c4c4" d="M 51.5,51.5 C 50.207,50.158 49.3736,48.4913 49,46.5C 46.8912,48.4178 44.7246,48.7512 42.5,47.5C 44.9206,45.7849 47.5872,44.9516 50.5,45C 51.4231,47.0408 51.7564,49.2075 51.5,51.5 Z"/></g>
<g><path style="opacity:0.917" fill="#b2b1b2" d="M 51.5,51.5 C 51.1818,56.0323 51.5151,60.3656 52.5,64.5C 52.7352,65.0967 53.2352,65.4301 54,65.5C 55.6664,64.6521 57.1664,63.6521 58.5,62.5C 60.4551,60.6742 62.7884,60.1742 65.5,61C 70.4898,62.6651 74.9898,65.1651 79,68.5C 82.3333,79.5 82.3333,90.5 79,101.5C 76.7148,102.819 74.5482,104.319 72.5,106C 61.1442,110.672 49.8108,115.339 38.5,120C 33.9103,121.615 31.077,120.115 30,115.5C 28.6159,119.758 26.1159,123.258 22.5,126C 17.3818,128.775 12.0485,130.942 6.5,132.5C 3.32468,133.091 0.991348,132.091 -0.5,129.5C -0.5,126.833 -0.5,124.167 -0.5,121.5C 0.267389,120.828 0.934056,119.995 1.5,119C 6.76905,116.742 12.1024,114.575 17.5,112.5C 18.32,94.8772 18.82,77.2105 19,59.5C 19.4652,58.0692 20.2986,56.9025 21.5,56C 24.4081,55.3112 27.0748,54.1445 29.5,52.5C 30.086,52.7093 30.586,53.0426 31,53.5C 31.4966,55.8098 31.6633,58.1432 31.5,60.5C 29.9328,59.3192 29.0995,57.6526 29,55.5C 28.3333,73.1667 28.3333,90.8333 29,108.5C 29.3736,106.509 30.207,104.842 31.5,103.5C 31.5,104.5 31.5,105.5 31.5,106.5C 31.0618,106.435 30.7284,106.601 30.5,107C 32.6406,108.259 34.9739,108.259 37.5,107C 38.2524,106.329 38.5858,105.496 38.5,104.5C 38.3334,86.8302 38.5001,69.1635 39,51.5C 39.66,49.6763 40.8267,48.343 42.5,47.5C 44.7246,48.7512 46.8912,48.4178 49,46.5C 49.3736,48.4913 50.207,50.158 51.5,51.5 Z M 52.5,79.5 C 54.8583,79.7475 56.8583,79.0808 58.5,77.5C 66.3447,74.231 70.0114,76.731 69.5,85C 69.3333,87.1667 69.1667,89.3333 69,91.5C 65.2136,93.4071 61.3802,95.2404 57.5,97C 55.7818,97.346 54.1151,97.846 52.5,98.5C 51.2097,92.1115 51.2097,85.7782 52.5,79.5 Z"/></g>
<g><path style="opacity:0.534" fill="#edd482" d="M 172.5,44.5 C 175.364,46.0233 177.031,48.3567 177.5,51.5C 176.833,51.8333 176.167,52.1667 175.5,52.5C 175.385,50.0532 174.385,48.0532 172.5,46.5C 172.5,45.8333 172.5,45.1667 172.5,44.5 Z"/></g>
<g><path style="opacity:0.672" fill="#eed77c" d="M 118.5,43.5 C 118.833,43.5 119.167,43.5 119.5,43.5C 119.343,44.8734 119.51,46.2068 120,47.5C 122.095,49.1247 124.261,50.4581 126.5,51.5C 122.888,52.0762 119.888,51.0762 117.5,48.5C 117.5,48.1667 117.5,47.8333 117.5,47.5C 117.833,46.1667 118.167,44.8333 118.5,43.5 Z"/></g>
<g><path style="opacity:0.646" fill="#f1dd86" d="M 140.5,43.5 C 142.945,44.3124 145.278,45.3124 147.5,46.5C 151.924,49.5185 156.924,51.1851 162.5,51.5C 165.092,52.66 166.759,54.66 167.5,57.5C 166.778,57.9175 166.278,58.5842 166,59.5C 165.617,58.944 165.117,58.6107 164.5,58.5C 164.67,57.1779 164.337,56.0113 163.5,55C 160.167,54 156.833,53 153.5,52C 148.925,50.2586 144.592,48.0919 140.5,45.5C 140.5,44.8333 140.5,44.1667 140.5,43.5 Z"/></g>
<g><path style="opacity:1" fill="#ebd058" d="M 147.5,46.5 C 152.959,47.2085 157.959,48.8752 162.5,51.5C 156.924,51.1851 151.924,49.5185 147.5,46.5 Z"/></g>
<g><path style="opacity:0.916" fill="#edd061" d="M 117.5,48.5 C 119.888,51.0762 122.888,52.0762 126.5,51.5C 127.694,52.2719 128.694,53.2719 129.5,54.5C 126.157,53.7761 122.824,52.9428 119.5,52C 118.619,51.2917 117.953,50.4584 117.5,49.5C 117.5,49.1667 117.5,48.8333 117.5,48.5 Z"/></g>
<g><path style="opacity:0.833" fill="#f1e18b" d="M 126.5,51.5 C 130.221,51.3685 133.554,52.3685 136.5,54.5C 134.653,55.5729 132.653,55.5729 130.5,54.5C 130.167,54.5 129.833,54.5 129.5,54.5C 128.694,53.2719 127.694,52.2719 126.5,51.5 Z"/></g>
<g><path style="opacity:1" fill="#f5d043" d="M 117.5,49.5 C 117.953,50.4584 118.619,51.2917 119.5,52C 122.824,52.9428 126.157,53.7761 129.5,54.5C 129.833,54.5 130.167,54.5 130.5,54.5C 131.058,55.7899 132.058,56.6232 133.5,57C 137.249,57.9178 140.916,59.0845 144.5,60.5C 146.178,63.5516 146.845,66.8849 146.5,70.5C 145.5,70.5 144.5,70.5 143.5,70.5C 142.064,69.5714 140.731,68.4048 139.5,67C 133.577,64.8692 127.577,63.0359 121.5,61.5C 119.02,60.758 116.687,59.758 114.5,58.5C 112.715,55.0481 111.382,51.3815 110.5,47.5C 110.334,42.1563 110.501,36.8229 111,31.5C 112.11,29.9632 113.61,29.2965 115.5,29.5C 115.334,35.8421 115.5,42.1754 116,48.5C 116.383,49.056 116.883,49.3893 117.5,49.5 Z"/></g>
<g><path style="opacity:0.833" fill="#efd478" d="M 130.5,54.5 C 132.653,55.5729 134.653,55.5729 136.5,54.5C 140.118,55.8034 143.451,57.4701 146.5,59.5C 146.5,60.1667 146.5,60.8333 146.5,61.5C 145.833,61.1667 145.167,60.8333 144.5,60.5C 140.916,59.0845 137.249,57.9178 133.5,57C 132.058,56.6232 131.058,55.7899 130.5,54.5 Z"/></g>
<g><path style="opacity:0.898" fill="#acaaac" d="M 31.5,60.5 C 31.5,74.8333 31.5,89.1667 31.5,103.5C 30.207,104.842 29.3736,106.509 29,108.5C 28.3333,90.8333 28.3333,73.1667 29,55.5C 29.0995,57.6526 29.9328,59.3192 31.5,60.5 Z"/></g>
<g><path style="opacity:0.791" fill="#ebd782" d="M 108.5,47.5 C 109.367,50.9083 110.533,54.2416 112,57.5C 112.671,58.2524 113.504,58.5858 114.5,58.5C 115.5,59.8333 116.5,61.1667 117.5,62.5C 111.327,60.3243 107.66,55.9909 106.5,49.5C 107.167,48.8333 107.833,48.1667 108.5,47.5 Z"/></g>
<g><path style="opacity:0.945" fill="#b5b4b5" d="M 8.5,113.5 C 6.25721,112.142 4.59054,112.808 3.5,115.5C 2.2946,116.686 0.961264,116.686 -0.5,115.5C -0.5,99.1667 -0.5,82.8333 -0.5,66.5C 2.00944,64.7446 4.67611,63.2446 7.5,62C 9.11238,61.2797 10.6124,61.4464 12,62.5C 12.6667,78.5 12.6667,94.5 12,110.5C 10.9609,111.71 9.79423,112.71 8.5,113.5 Z"/></g>
<g><path style="opacity:0.737" fill="#ebd16f" d="M 114.5,58.5 C 116.687,59.758 119.02,60.758 121.5,61.5C 121.167,62.1667 120.833,62.8333 120.5,63.5C 119.209,63.7373 118.209,63.404 117.5,62.5C 116.5,61.1667 115.5,59.8333 114.5,58.5 Z"/></g>
<g><path style="opacity:0.811" fill="#eddb8f" d="M 146.5,59.5 C 149.893,61.073 151.226,63.7396 150.5,67.5C 149.5,66.1667 148.5,64.8333 147.5,63.5C 147.167,62.8333 146.833,62.1667 146.5,61.5C 146.5,60.8333 146.5,60.1667 146.5,59.5 Z"/></g>
<g><path style="opacity:1" fill="#eece59" d="M 121.5,61.5 C 127.577,63.0359 133.577,64.8692 139.5,67C 140.731,68.4048 142.064,69.5714 143.5,70.5C 136.224,68.7716 129.391,66.105 123,62.5C 122.329,63.2524 121.496,63.5858 120.5,63.5C 120.833,62.8333 121.167,62.1667 121.5,61.5 Z"/></g>
<g><path style="opacity:0.28" fill="#f0dd8c" d="M 167.5,57.5 C 167.756,64.2244 167.423,70.891 166.5,77.5C 165.5,78.1667 164.5,78.8333 163.5,79.5C 162.508,79.6716 161.842,79.3382 161.5,78.5C 162.458,78.0472 163.292,77.3805 164,76.5C 164.499,70.5092 164.666,64.5092 164.5,58.5C 165.117,58.6107 165.617,58.944 166,59.5C 166.278,58.5842 166.778,57.9175 167.5,57.5 Z"/></g>
<g><path style="opacity:0.68" fill="#c8c8c8" d="M 58.5,62.5 C 57.1664,63.6521 55.6664,64.6521 54,65.5C 53.2352,65.4301 52.7352,65.0967 52.5,64.5C 54.1417,62.9192 56.1417,62.2525 58.5,62.5 Z"/></g>
<g><path style="opacity:1" fill="#edd05e" d="M 144.5,60.5 C 145.167,60.8333 145.833,61.1667 146.5,61.5C 146.833,62.1667 147.167,62.8333 147.5,63.5C 147.5,66.5 147.5,69.5 147.5,72.5C 145.517,72.8432 144.183,72.1765 143.5,70.5C 144.5,70.5 145.5,70.5 146.5,70.5C 146.845,66.8849 146.178,63.5516 144.5,60.5 Z"/></g>
<g><path style="opacity:0.929" fill="#ead37a" d="M 147.5,63.5 C 148.5,64.8333 149.5,66.1667 150.5,67.5C 150.5,67.8333 150.5,68.1667 150.5,68.5C 149.5,69.8333 148.5,71.1667 147.5,72.5C 147.5,69.5 147.5,66.5 147.5,63.5 Z"/></g>
<g><path style="opacity:1" fill="#efd05f" d="M 167.5,57.5 C 167.833,57.5 168.167,57.5 168.5,57.5C 169.126,64.5837 168.459,71.2504 166.5,77.5C 167.423,70.891 167.756,64.2244 167.5,57.5 Z"/></g>
<g><path style="opacity:1" fill="#f6d043" d="M 175.5,58.5 C 175.5,60.8333 175.5,63.1667 175.5,65.5C 174.511,70.9753 174.178,76.642 174.5,82.5C 173.5,82.5 172.5,82.5 171.5,82.5C 171.5,83.5 171.5,84.5 171.5,85.5C 169.076,85.1924 166.743,85.5258 164.5,86.5C 165.127,87.4168 165.461,88.4168 165.5,89.5C 163.941,91.2501 161.941,92.2501 159.5,92.5C 156.214,92.9288 153.047,92.9288 150,92.5C 149.1,93.7702 147.934,94.7702 146.5,95.5C 145.873,96.4168 145.539,97.4168 145.5,98.5C 143.139,98.6741 140.806,99.0074 138.5,99.5C 138.034,95.838 138.701,92.5046 140.5,89.5C 144.775,90.2503 148.109,88.917 150.5,85.5C 151.167,85.5 151.833,85.5 152.5,85.5C 154.927,85.477 157.26,84.977 159.5,84C 160.716,82.2602 162.382,81.2602 164.5,81C 165.823,80.1841 166.489,79.0174 166.5,77.5C 168.459,71.2504 169.126,64.5837 168.5,57.5C 168.5,56.1667 168.5,54.8333 168.5,53.5C 170.5,52.8333 172.5,52.1667 174.5,51.5C 174.198,54.0593 174.532,56.3926 175.5,58.5 Z"/></g>
<g><path style="opacity:0.791" fill="#efdb85" d="M 143.5,70.5 C 144.183,72.1765 145.517,72.8432 147.5,72.5C 146.167,73.5 146.167,74.5 147.5,75.5C 138.054,72.2407 129.054,68.2407 120.5,63.5C 121.496,63.5858 122.329,63.2524 123,62.5C 129.391,66.105 136.224,68.7716 143.5,70.5 Z"/></g>
<g><path style="opacity:0.761" fill="#e0d48b" d="M 150.5,68.5 C 150.662,70.5273 150.495,72.5273 150,74.5C 149.329,75.2524 148.496,75.5858 147.5,75.5C 146.167,74.5 146.167,73.5 147.5,72.5C 148.5,71.1667 149.5,69.8333 150.5,68.5 Z"/></g>
<g><path style="opacity:1" fill="#f2cf4f" d="M 175.5,65.5 C 175.5,70.1667 175.5,74.8333 175.5,79.5C 176.109,82.8784 174.776,84.8784 171.5,85.5C 171.5,84.5 171.5,83.5 171.5,82.5C 172.5,82.5 173.5,82.5 174.5,82.5C 174.178,76.642 174.511,70.9753 175.5,65.5 Z"/></g>
<g><path style="opacity:0.929" fill="#edcf5f" d="M 177.5,51.5 C 178.492,58.9818 178.825,66.6484 178.5,74.5C 176.787,75.6354 176.12,77.302 176.5,79.5C 176.167,79.5 175.833,79.5 175.5,79.5C 175.5,74.8333 175.5,70.1667 175.5,65.5C 175.5,63.1667 175.5,60.8333 175.5,58.5C 175.5,56.5 175.5,54.5 175.5,52.5C 176.167,52.1667 176.833,51.8333 177.5,51.5 Z"/></g>
<g><path style="opacity:0.94" fill="#b3b2b3" d="M 98.5,145.5 C 95.6874,145.025 93.6874,146.025 92.5,148.5C 88.7758,149.522 85.1091,150.855 81.5,152.5C 79.8333,152.5 78.1667,152.5 76.5,152.5C 76.6664,144.493 76.4997,136.493 76,128.5C 74.687,127.713 73.5203,128.046 72.5,129.5C 70.8828,130.038 69.2161,130.371 67.5,130.5C 67.5,134.5 67.5,138.5 67.5,142.5C 68.8221,142.33 69.9887,142.663 71,143.5C 71.6667,147.5 71.6667,151.5 71,155.5C 66.6198,159.651 61.6198,161.651 56,161.5C 55.061,149.096 55.3943,136.762 57,124.5C 58.1667,122.667 59.3333,120.833 60.5,119C 66.644,115.716 72.9773,112.883 79.5,110.5C 80.8845,111.801 82.3845,111.801 84,110.5C 84.8518,111.571 85.6851,112.571 86.5,113.5C 86.5,120.167 86.5,126.833 86.5,133.5C 85.218,134.708 85.218,136.042 86.5,137.5C 88.261,136.965 89.5943,135.965 90.5,134.5C 91.4293,133.685 92.4293,132.852 93.5,132C 98.2746,129.685 103.275,127.851 108.5,126.5C 109.495,121.208 109.828,115.875 109.5,110.5C 101.624,107.597 93.7908,104.597 86,101.5C 85.3333,96.1667 85.3333,90.8333 86,85.5C 95.0669,80.679 104.567,76.679 114.5,73.5C 115.442,73.6082 116.275,73.9415 117,74.5C 117.667,78.1667 117.667,81.8333 117,85.5C 112.831,89.5001 107.997,92.3334 102.5,94C 109.268,94.3249 115.102,97.1583 120,102.5C 121.488,108.441 122.655,114.441 123.5,120.5C 141.154,113.191 158.82,105.858 176.5,98.5C 177.086,98.7093 177.586,99.0426 178,99.5C 178.667,103.833 178.667,108.167 178,112.5C 177.167,113.333 176.333,114.167 175.5,115C 160.142,120.182 145.142,126.182 130.5,133C 126.219,134.458 123.053,133.292 121,129.5C 120.438,132.872 118.938,135.705 116.5,138C 110.944,141.574 104.944,144.074 98.5,145.5 Z"/></g>
<g><path style="opacity:0.366" fill="#f4e09a" d="M 178.5,74.5 C 178.81,77.7131 178.477,80.7131 177.5,83.5C 176.766,82.2921 176.433,80.9587 176.5,79.5C 176.12,77.302 176.787,75.6354 178.5,74.5 Z"/></g>
<g><path style="opacity:0.498" fill="#c9c9c9" d="M 58.5,77.5 C 56.8583,79.0808 54.8583,79.7475 52.5,79.5C 54.0852,77.0183 56.0852,76.3516 58.5,77.5 Z"/></g>
<g><path style="opacity:0.818" fill="#edd579" d="M 161.5,78.5 C 161.842,79.3382 162.508,79.6716 163.5,79.5C 160.249,82.233 156.583,84.233 152.5,85.5C 151.833,85.5 151.167,85.5 150.5,85.5C 149.167,85.1667 147.833,84.8333 146.5,84.5C 147.568,83.5655 148.901,83.2322 150.5,83.5C 153.034,83.7409 154.7,82.7409 155.5,80.5C 157.685,80.2964 159.685,79.6298 161.5,78.5 Z"/></g>
<g><path style="opacity:0.549" fill="#f1e29f" d="M 155.5,80.5 C 154.7,82.7409 153.034,83.7409 150.5,83.5C 151.401,81.2729 153.067,80.2729 155.5,80.5 Z"/></g>
<g><path style="opacity:1" fill="#efd054" d="M 166.5,77.5 C 166.489,79.0174 165.823,80.1841 164.5,81C 162.382,81.2602 160.716,82.2602 159.5,84C 157.26,84.977 154.927,85.477 152.5,85.5C 156.583,84.233 160.249,82.233 163.5,79.5C 164.5,78.8333 165.5,78.1667 166.5,77.5 Z"/></g>
<g><path style="opacity:1" fill="#f5cd50" d="M 171.5,85.5 C 169.882,87.316 167.882,88.6493 165.5,89.5C 165.461,88.4168 165.127,87.4168 164.5,86.5C 166.743,85.5258 169.076,85.1924 171.5,85.5 Z"/></g>
<g><path style="opacity:0.537" fill="#ebda90" d="M 146.5,84.5 C 145.106,86.8943 143.106,88.561 140.5,89.5C 138.973,89.427 137.973,90.0937 137.5,91.5C 136.728,92.6935 135.728,93.6935 134.5,94.5C 134.081,91.6755 135.081,89.5088 137.5,88C 140.53,86.7159 143.53,85.5492 146.5,84.5 Z"/></g>
<g><path style="opacity:1" fill="#ead15e" d="M 146.5,84.5 C 147.833,84.8333 149.167,85.1667 150.5,85.5C 148.109,88.917 144.775,90.2503 140.5,89.5C 143.106,88.561 145.106,86.8943 146.5,84.5 Z"/></g>
<g><path style="opacity:0.58" fill="#eedb84" d="M 175.5,79.5 C 175.833,79.5 176.167,79.5 176.5,79.5C 176.433,80.9587 176.766,82.2921 177.5,83.5C 175.372,86.1303 173.039,88.6303 170.5,91C 159.248,95.9763 147.915,100.31 136.5,104C 135.177,103.184 134.511,102.017 134.5,100.5C 135.5,100.5 136.5,100.5 137.5,100.5C 137.917,101.124 138.584,101.457 139.5,101.5C 141.563,100.488 143.563,99.4882 145.5,98.5C 147.928,96.9565 150.594,95.9565 153.5,95.5C 155.553,95.5979 157.22,94.9313 158.5,93.5C 159.167,93.5 159.5,93.1667 159.5,92.5C 161.941,92.2501 163.941,91.2501 165.5,89.5C 167.882,88.6493 169.882,87.316 171.5,85.5C 174.776,84.8784 176.109,82.8784 175.5,79.5 Z"/></g>
<g><path style="opacity:0.859" fill="#e8d371" d="M 137.5,91.5 C 137.5,94.5 137.5,97.5 137.5,100.5C 136.5,100.5 135.5,100.5 134.5,100.5C 134.5,98.5 134.5,96.5 134.5,94.5C 135.728,93.6935 136.728,92.6935 137.5,91.5 Z"/></g>
<g><path style="opacity:1" fill="#f3cf50" d="M 159.5,92.5 C 159.5,93.1667 159.167,93.5 158.5,93.5C 156.302,93.1201 154.635,93.7868 153.5,95.5C 150.594,95.9565 147.928,96.9565 145.5,98.5C 145.539,97.4168 145.873,96.4168 146.5,95.5C 147.934,94.7702 149.1,93.7702 150,92.5C 153.047,92.9288 156.214,92.9288 159.5,92.5 Z"/></g>
<g><path style="opacity:0.831" fill="#ead16b" d="M 158.5,93.5 C 157.22,94.9313 155.553,95.5979 153.5,95.5C 154.635,93.7868 156.302,93.1201 158.5,93.5 Z"/></g>
<g><path style="opacity:1" fill="#edd15d" d="M 140.5,89.5 C 138.701,92.5046 138.034,95.838 138.5,99.5C 140.806,99.0074 143.139,98.6741 145.5,98.5C 143.563,99.4882 141.563,100.488 139.5,101.5C 138.584,101.457 137.917,101.124 137.5,100.5C 137.5,97.5 137.5,94.5 137.5,91.5C 137.973,90.0937 138.973,89.427 140.5,89.5 Z"/></g>
<g><path style="opacity:0.592" fill="#c2c2c2" d="M 38.5,104.5 C 38.5858,105.496 38.2524,106.329 37.5,107C 34.9739,108.259 32.6406,108.259 30.5,107C 30.7284,106.601 31.0618,106.435 31.5,106.5C 33.7014,105.434 36.0347,104.767 38.5,104.5 Z"/></g>
<g><path style="opacity:0.733" fill="#c4c1c2" d="M 86.5,113.5 C 85.6851,112.571 84.8518,111.571 84,110.5C 82.3845,111.801 80.8845,111.801 79.5,110.5C 83.8433,107.161 86.1766,108.161 86.5,113.5 Z"/></g>
<g><path style="opacity:0.498" fill="#cdcdcd" d="M 8.5,113.5 C 7.18047,114.942 5.5138,115.608 3.5,115.5C 4.59054,112.808 6.25721,112.142 8.5,113.5 Z"/></g>
<g><path style="opacity:0.477" fill="#c8c8c8" d="M -0.5,129.5 C 0.991348,132.091 3.32468,133.091 6.5,132.5C 4.71674,135.207 2.38341,135.873 -0.5,134.5C -0.5,132.833 -0.5,131.167 -0.5,129.5 Z"/></g>
<g><path style="opacity:0.49" fill="#c9c8c8" d="M 86.5,133.5 C 87.5676,134.434 88.901,134.768 90.5,134.5C 89.5943,135.965 88.261,136.965 86.5,137.5C 85.218,136.042 85.218,134.708 86.5,133.5 Z"/></g>
<g><path style="opacity:0.855" fill="#bdbcbd" d="M 81.5,152.5 C 79.6915,153.394 77.8582,154.394 76,155.5C 75.228,155.355 74.5613,155.022 74,154.5C 73.8294,145.99 73.3294,137.657 72.5,129.5C 73.5203,128.046 74.687,127.713 76,128.5C 76.4997,136.493 76.6664,144.493 76.5,152.5C 78.1667,152.5 79.8333,152.5 81.5,152.5 Z"/></g>
<g><path style="opacity:0.58" fill="#cfcdce" d="M 98.5,145.5 C 97.089,147.539 95.089,148.539 92.5,148.5C 93.6874,146.025 95.6874,145.025 98.5,145.5 Z"/></g>
</svg>
