<?xml version="1.0" standalone="no"?>
<!DOCTYPE svg PUBLIC "-//W3C//DTD SVG 20010904//EN"
 "http://www.w3.org/TR/2001/REC-SVG-20010904/DTD/svg10.dtd">
<svg version="1.0" xmlns="http://www.w3.org/2000/svg"
 width="1200.000000pt" height="1200.000000pt" viewBox="0 0 1200.000000 1200.000000"
 preserveAspectRatio="xMidYMid meet">

<g transform="translate(0.000000,1200.000000) scale(0.100000,-0.100000)"
fill="#000000" stroke="none">
<path d="M6330 10744 c-19 -2 -91 -9 -160 -14 -1135 -98 -2295 -640 -3161
-1477 l-139 -136 -58 26 c-31 14 -78 28 -103 32 -55 8 -460 -39 -521 -61 -142
-50 -241 -177 -255 -326 -7 -76 -8 -70 103 -369 46 -124 84 -231 84 -237 0 -7
-36 -74 -81 -150 -255 -434 -467 -950 -584 -1422 -112 -455 -151 -810 -142
-1295 8 -473 68 -853 198 -1261 86 -270 233 -604 363 -823 l56 -93 0 -412 c0
-455 4 -488 62 -578 52 -82 137 -135 246 -153 28 -4 147 6 351 31 l308 37 84
-59 c610 -431 1274 -674 2064 -755 178 -19 664 -16 860 5 671 70 1291 257
1885 568 442 232 912 569 1260 904 84 82 105 96 185 129 409 168 703 551 751
976 6 53 18 82 67 169 87 151 265 521 332 690 195 490 314 1000 355 1514 13
166 13 566 0 732 -60 760 -291 1435 -711 2072 -38 57 -69 113 -69 125 0 38
-42 181 -80 268 -128 300 -372 492 -691 544 -80 13 -93 18 -170 73 -124 89
-305 196 -474 282 -490 249 -1026 396 -1604 440 -123 9 -526 12 -611 4z m780
-294 c421 -55 790 -159 1161 -325 174 -78 385 -196 368 -205 -8 -4 -66 -13
-129 -20 l-115 -12 -145 70 c-405 195 -851 312 -1345 353 -177 15 -612 6 -795
-15 -804 -95 -1563 -391 -2240 -875 -74 -53 -139 -99 -145 -103 -14 -9 -275
-41 -281 -35 -6 6 117 106 256 209 735 546 1608 889 2460 967 63 6 131 13 150
15 19 2 170 3 335 1 238 -2 334 -7 465 -25z m2078 -725 c222 -44 409 -203 498
-425 59 -144 68 -200 68 -415 0 -186 -2 -207 -27 -300 -52 -191 -157 -369
-291 -492 -36 -33 -66 -65 -66 -70 0 -5 93 -276 206 -603 224 -648 222 -637
170 -704 -15 -20 -44 -41 -68 -50 -57 -20 -387 -60 -432 -52 -75 14 -78 21
-256 572 -90 280 -174 543 -187 585 -19 61 -27 76 -41 74 -9 -2 -38 -7 -64
-10 l-48 -6 0 -587 c0 -548 -2 -590 -19 -627 -38 -82 -72 -96 -312 -125 -184
-23 -187 -23 -225 -4 -80 39 -74 -92 -74 1552 0 1206 2 1468 14 1495 18 45 78
95 123 103 104 20 799 102 871 103 46 0 118 -6 160 -14z m-1481 -199 l33 -36
-2 -1183 -3 -1182 -27 -100 c-53 -191 -148 -355 -285 -486 -123 -119 -259
-193 -440 -240 -117 -30 -344 -33 -443 -6 -303 83 -495 327 -539 682 -16 130
-15 2243 1 2297 16 54 73 103 134 116 91 19 351 45 386 38 19 -3 47 -20 64
-37 l29 -30 5 -1162 5 -1162 24 -52 c29 -65 87 -120 136 -129 119 -22 228 34
284 145 46 90 45 55 51 1272 l5 1156 27 35 c16 22 45 43 70 52 55 20 326 56
397 52 48 -3 58 -7 88 -40z m-2541 -257 c312 -55 513 -248 591 -568 14 -57 17
-175 20 -856 3 -511 1 -831 -6 -906 -24 -258 -111 -452 -280 -619 -188 -187
-405 -276 -696 -287 -132 -5 -161 -3 -235 16 -266 66 -447 245 -523 516 l-22
80 0 895 c0 895 0 895 22 983 49 192 133 340 267 472 186 184 426 280 712 284
50 0 117 -4 150 -10z m-1283 -173 c46 -19 69 -49 74 -98 4 -37 -39 -169 -291
-901 l-296 -859 0 -616 c0 -605 0 -616 -21 -659 -35 -72 -76 -89 -271 -113
-215 -26 -248 -26 -283 2 -56 44 -55 35 -55 698 l0 611 -296 787 c-262 698
-295 792 -291 831 12 104 67 132 318 162 102 12 202 19 221 15 72 -13 80 -31
225 -483 73 -229 135 -418 137 -420 1 -2 60 192 130 430 71 237 136 450 146
473 18 43 66 86 110 99 21 7 338 50 393 54 10 0 32 -5 50 -13z m6182 -716
c497 -988 555 -2195 162 -3345 -49 -144 -136 -359 -191 -475 l-36 -75 3 195 3
195 70 201 c197 562 285 1216 240 1771 -46 556 -147 942 -386 1470 l-32 71 28
101 28 100 19 -32 c11 -17 52 -97 92 -177z m-7774 -642 l23 -66 -86 -179 c-93
-193 -129 -273 -188 -428 -346 -909 -399 -1883 -150 -2764 l40 -143 -2 -211
-3 -212 -53 132 c-420 1049 -392 2254 78 3398 52 125 226 483 271 555 l21 34
13 -24 c7 -14 23 -55 36 -92z m6934 -1382 c144 -40 288 -132 376 -240 62 -75
122 -196 151 -301 22 -79 23 -86 26 -980 3 -982 2 -1002 -54 -1170 -87 -264
-299 -494 -553 -600 -217 -91 -486 -118 -681 -69 -263 66 -453 259 -532 539
-22 80 -23 82 -26 980 -2 776 -1 914 13 999 70 443 389 766 842 851 104 19
354 14 438 -9z m-2090 -237 c143 -23 269 -85 376 -186 115 -109 185 -242 214
-408 17 -102 21 -389 4 -432 -14 -39 -67 -91 -104 -103 -17 -6 -116 -21 -219
-34 -197 -25 -239 -23 -279 12 -36 32 -41 57 -47 232 -5 142 -9 182 -24 210
-45 86 -93 114 -196 114 -129 -1 -227 -66 -270 -181 -20 -54 -20 -67 -18 -962
l3 -908 30 -48 c39 -64 97 -95 175 -95 121 0 209 50 265 151 l30 54 3 248 c3
202 1 247 -10 247 -8 0 -67 -7 -133 -15 -122 -15 -153 -13 -193 13 -50 33 -57
63 -57 257 0 178 0 180 27 227 45 76 62 80 486 132 205 25 390 46 410 46 50 0
100 -33 118 -76 23 -55 15 -1031 -9 -1122 -49 -183 -128 -324 -256 -455 -295
-304 -804 -405 -1160 -230 -113 55 -244 188 -300 303 -22 47 -51 121 -63 165
-22 79 -22 87 -26 975 -3 933 -1 1017 39 1162 46 168 170 360 306 473 237 197
561 283 878 234z m-2100 -239 c200 -22 327 -82 460 -215 103 -102 147 -176
192 -320 l28 -90 3 -920 c3 -979 3 -997 -45 -1150 -54 -171 -133 -296 -270
-425 -201 -191 -449 -284 -753 -284 -162 0 -233 16 -370 81 -175 84 -314 255
-369 453 -39 140 -43 245 -39 1130 4 813 5 848 25 936 67 292 251 540 505 678
119 65 277 111 428 126 110 11 108 11 205 0z m-2286 -327 c59 -44 56 39 61
-1378 l5 -1300 420 52 c459 57 512 60 555 38 55 -28 64 -63 68 -239 2 -98 -1
-176 -8 -205 -14 -56 -70 -118 -120 -131 -19 -5 -354 -48 -745 -96 -655 -80
-712 -86 -749 -73 -25 9 -49 27 -63 48 l-23 34 0 1549 c0 1523 0 1549 20 1588
19 37 54 69 95 85 34 13 367 54 414 50 24 -1 55 -12 70 -22z m5892 -2802 l32
-6 -119 -99 c-749 -625 -1666 -1014 -2649 -1123 -189 -21 -645 -23 -830 -4
-591 59 -1146 236 -1615 513 -152 91 -151 83 -17 98 l117 13 178 -86 c292
-142 552 -233 857 -301 1100 -243 2319 -9 3357 645 131 83 295 198 423 298
l90 70 72 -5 c39 -4 86 -9 104 -13z"/>
<path d="M8728 9137 l-78 -9 0 -378 0 -377 134 18 c184 24 242 58 300 174 36
72 45 125 46 246 0 119 -14 180 -59 251 -55 86 -129 103 -343 75z"/>
<path d="M4830 8685 c-63 -20 -124 -75 -157 -143 l-28 -57 0 -860 0 -860 31
-55 c42 -74 87 -100 175 -100 128 0 207 47 261 158 l33 67 0 845 0 845 -27 57
c-37 79 -87 112 -177 115 -37 2 -86 -4 -111 -12z"/>
<path d="M8826 5770 c-102 -18 -188 -101 -221 -213 -22 -73 -23 -1748 -1
-1821 31 -101 102 -156 204 -156 128 0 225 59 279 168 l28 57 3 879 c2 771 1
886 -13 932 -35 121 -139 178 -279 154z"/>
<path d="M4750 5267 c-97 -27 -162 -91 -197 -191 -17 -47 -18 -114 -18 -931 0
-989 -4 -938 74 -1008 51 -46 100 -61 177 -54 79 8 121 25 174 73 59 53 89
119 100 217 13 109 12 1590 0 1687 -12 93 -48 155 -108 188 -52 29 -139 37
-202 19z"/>
</g>
</svg>
